<?xml version="1.0" encoding="utf-8"?>
<!-- Generator: Adobe Illustrator 27.6.1, SVG Export Plug-In . SVG Version: 6.00 Build 0)  -->
<svg version="1.1" id="Layer_1" xmlns="http://www.w3.org/2000/svg" xmlns:xlink="http://www.w3.org/1999/xlink" x="0px" y="0px"
	 viewBox="0 0 373 145" style="enable-background:new 0 0 373 145;" xml:space="preserve">
<style type="text/css">
	.st0{fill:#FFFFFF;}
</style>
<path class="st0" d="M264.6,91.7H256V75c0-2.9-0.8-3.8-2.3-3.8c-1.1,0-2.1,0.7-2.6,1.7v18.8h-8.6V65.2l7.7-0.5v2.4h0.1
	c1.6-2,3.9-2.9,6.5-2.9c2.6,0,4.8,1.2,6,3.4c1.8-2.1,4.2-3.4,7.2-3.4c5.3,0,8.2,3.2,8.2,10.8v16.8h-8.6V75c0-2.7-0.7-3.8-2.4-3.8
	c-1.4,0-2.5,0.9-2.5,3.8L264.6,91.7L264.6,91.7z"/>
<path class="st0" d="M290.1,79.9v1.7c0,3,1.1,4.2,3.5,4.2c1.8,0,2.8-0.8,3.7-3l6.1,2.2c-1.6,4.9-4.9,7.2-10.8,7.2
	c-7.2,0-11.2-4.5-11.2-10.2v-7.8c0-5.3,3.6-10.1,11.2-10.1c7,0,10.7,4.8,10.7,10.5v5.3H290.1z M290.1,75.5h5.6v-1.8
	c0-2.4-1-3.3-2.8-3.3c-2,0-2.8,1-2.8,3.3V75.5z"/>
<path class="st0" d="M320.5,66l0.1,0.2l0-11.5l8.6-0.6v37.6h-7.7l-0.3-2h-0.1c-1.7,1.7-4,2.5-6.8,2.5c-5.2,0-8.3-4-8.3-10.8v-6.4
	c0-6.8,3.1-10.8,8.9-10.8C317.1,64.3,319,64.8,320.5,66L320.5,66z M320.6,72.6c-0.7-0.9-1.6-1.4-3-1.4c-1.9,0-2.9,0.9-2.9,4.1v6.2
	c0,2.8,0.9,4,2.6,4c1.5,0,2.5-0.6,3.2-1.5V72.6z"/>
<path class="st0" d="M343,64.7v27.1l-8.6,0V65.2L343,64.7z"/>
<path class="st0" d="M347.8,71c1.8-4.1,5.2-6.9,10.5-6.9c7.1,0,9.8,4.2,9.8,9.3v11.8c0,0.8,0.5,1.4,1.4,1.4h0.7v4.8
	c-1.2,0.4-2.5,0.6-3.8,0.6c-2.6,0-4.3-0.8-5.3-2.1c-1.8,1.5-3.9,2.2-6.6,2.2c-4.8,0-7.4-3.3-7.4-7.8c0-4.5,3-9,11.1-9.6l1.2-0.1
	v-1.3c0-2.3-1.2-3.2-3-3.2c-1.4,0-3.3,0.9-4.5,3L347.8,71z M359.6,85.4v-6c-0.8,0-1.3,0.1-1.3,0.1c-2.4,0.4-3.1,2.5-3.1,4.2
	c0,2.3,0.8,2.8,1.9,2.8C358.1,86.5,358.9,86.1,359.6,85.4L359.6,85.4z"/>
<path class="st0" d="M341.8,53.8c1.6,1.7,1.5,4.4-0.2,6c-1.7,1.6-4.4,1.5-6-0.2c-1.6-1.7-1.5-4.4,0.2-6
	C337.5,52,340.2,52.1,341.8,53.8L341.8,53.8z"/>
<path class="st0" d="M282.8,104.8c2.8,0,4.5,1.5,5.4,3.7l-2.7,1.2c-0.4-1.2-1.2-1.7-2.2-1.7c-1,0-1.5,0.4-1.5,1.1
	c0,2.2,6.5,2.3,6.5,7.4c0,3-2,4.7-5.2,4.7c-2.5,0-4.8-1.5-5.4-4l3-1c0.4,1.3,1.5,1.9,2.4,1.9c1.1,0,1.5-0.4,1.5-1.1
	c0-2.7-6.7-2.6-6.7-7.6C277.8,106.9,279.7,104.8,282.8,104.8z M289.5,109.7h3.6V121h-3.6V109.7z M289.7,105.1h3.3v3.1h-3.3V105.1z
	 M298.6,113.1v7.9H295v-11.3h3.2l0.1,0.9h0c0.7-0.8,1.7-1.1,2.8-1.1c2.2,0,3.5,1.6,3.5,4.5v7H301v-6.9c0-1.3-0.4-1.7-1.1-1.7
	C299.3,112.4,298.9,112.7,298.6,113.1z M314.4,112.5l-2.5,0.9c-0.3-0.9-0.7-1.1-1.3-1.1c-0.8,0-1.3,0.3-1.3,1.6v2.9
	c0,1.3,0.4,1.7,1.3,1.7c0.7,0,1.1-0.3,1.3-1.2l2.5,0.9c-0.7,1.9-2.1,3-4.2,3c-3.1,0-4.5-2.1-4.5-4.2v-3.3c0-2.2,1.5-4.2,4.5-4.2
	C312.3,109.5,313.8,110.6,314.4,112.5z M324.2,116.1h-5.5v0.7c0,1.2,0.5,1.7,1.5,1.7c0.7,0,1.2-0.4,1.5-1.3l2.5,0.9
	c-0.7,2-2,3-4.5,3c-3,0-4.6-1.9-4.6-4.2v-3.2c0-2.2,1.5-4.2,4.6-4.2c2.9,0,4.4,2,4.4,4.4V116.1z M318.7,113.5v0.6h2.3v-0.6
	c0-1-0.4-1.4-1.2-1.4C319.1,112.1,318.7,112.5,318.7,113.5z M332.6,105h3.1v16h-3.9v-10.4h-3.1v-2.7h1.3
	C331.8,107.9,332.3,107.4,332.6,105z M340.1,116.3c0.5,1.3,1.2,1.8,2.3,1.8c1.4,0,2-0.7,2-2.2v-1.5h0c-0.6,0.5-1.4,0.7-2.4,0.7
	c-2.7,0-4.5-1.5-4.5-4.8c0-3.5,1.9-5.5,5.3-5.5c3.5,0,5.2,2.4,5.2,5.1v5.7c0,3.4-2,5.6-5.5,5.6c-2.5,0-4.2-1.2-4.9-3.6L340.1,116.3z
	 M342.7,112.1c0.7,0,1.7-0.2,1.7-1.1v-1.2c0-1.3-0.5-1.7-1.6-1.7c-1.1,0-1.6,0.5-1.6,2C341.2,111.7,341.7,112.1,342.7,112.1z
	 M351.8,116.3c0.5,1.3,1.2,1.8,2.3,1.8c1.4,0,2-0.7,2-2.2v-1.5h0c-0.6,0.5-1.4,0.7-2.4,0.7c-2.7,0-4.5-1.5-4.5-4.8
	c0-3.5,1.9-5.5,5.3-5.5c3.5,0,5.2,2.4,5.2,5.1v5.7c0,3.4-2,5.6-5.5,5.6c-2.5,0-4.2-1.2-5-3.6L351.8,116.3z M354.4,112.1
	c0.7,0,1.7-0.2,1.7-1.1v-1.2c0-1.3-0.5-1.7-1.6-1.7s-1.6,0.5-1.6,2C352.9,111.7,353.4,112.1,354.4,112.1z M370.7,121h-3.4v-2.8h-6.7
	v-2.6l6.4-10.6h3.7v10.1h1.5l-0.2,3h-1.3V121z M364.3,115.2h3l0.2-5.8h0L364.3,115.2z"/>
<path class="st0" d="M23.9,64.7v27.1h-8.6V65.2L23.9,64.7z"/>
<path class="st0" d="M37.6,91.8l-8.6,0V65.3l7.7-0.5l0.2,2.2h0.1c1.7-1.8,4-2.7,6.8-2.7C49,64.2,52,68.1,52,75v16.8h-8.6V75.2
	c0-3-0.9-3.9-2.7-3.9c-1.4,0-2.5,0.6-3.2,1.5V91.8L37.6,91.8z"/>
<path class="st0" d="M70,73.5h-4.4v18.3h-8.7V73.5h-2.4l0-5.8h2.4l0-1.1c0-5.4,3.3-10,12.6-10.1l0.4,5.3c-3.7,0.1-4.8,2.3-4.8,4.9
	l0,0.9H70L70,73.5z"/>
<path class="st0" d="M95.4,82.2c0,5.4-3.9,10.1-11.7,10.1c-7.8,0-11.6-4.7-11.6-10.1v-7.8c0-5.4,3.9-10.2,11.6-10.2
	c7.8,0,11.7,4.6,11.7,10.2V82.2z M80.7,81.7c0,3,1.1,4.1,3,4.1c2.1,0,3.1-1.1,3.1-4.1v-7c0-3-1-4.1-3.1-4.1s-3,1.2-3,4.1V81.7z"/>
<path class="st0" d="M22.6,53.8c1.6,1.7,1.5,4.4-0.2,6c-1.7,1.6-4.4,1.5-6-0.2c-1.6-1.7-1.5-4.4,0.2-6C18.3,52,21,52.1,22.6,53.8
	L22.6,53.8z"/>
<path class="st0" d="M7.7,84.5c1.7,1.8,1.6,4.6-0.2,6.3c-1.8,1.7-4.6,1.6-6.3-0.2c-1.7-1.8-1.6-4.6,0.2-6.3
	C3.2,82.7,6,82.8,7.7,84.5L7.7,84.5z"/>
<path class="st0" d="M125.9,77.8V62.3h6.9c6.4,0,9.5-2.8,9.5-9.6c0-6.5-2.5-9.4-8.1-9.4c-6,0-9.6,2.6-11.9,10.1L107,48
	c3.6-13.1,13.6-22,29.2-22c18.8,0,27.1,11.5,27.1,23.8c0,9-3.2,16-10.8,19.2v0.2c8.2,2.5,12.3,9.3,12.3,19.5
	c0,18-11.5,26.8-29.2,26.8c-15.5,0-25.1-6.7-29-21.1l15.2-5.5c2.3,6.6,6.3,9.9,12.3,9.9c6.5,0,9.3-4,9.3-11.4
	c0-7.2-3.2-9.6-10.1-9.6H125.9z M228.9,57.2v27.1c0,19-10.2,31.3-29,31.3c-18.8,0-28.9-12.3-28.9-31.3V57.4
	c0-19,10.1-31.4,28.9-31.4C218.7,26,228.9,38.4,228.9,57.2z M191.1,57.2v27.1c0,10.3,2.5,13.7,8.8,13.7c6.3,0,8.9-3.4,8.9-13.7V57.2
	c0-9.9-2.6-13-8.9-13C193.7,44.3,191.1,47.4,191.1,57.2z"/>
</svg>
